<svg xmlns="http://www.w3.org/2000/svg" xmlns:xlink="http://www.w3.org/1999/xlink" width="30" height="30"><rect id="backgroundrect" width="100%" height="100%" x="0" y="0" fill="none" stroke="none"/><defs><symbol id="icon-header-2" viewBox="0 0 24 24"><path d="M17.375 6.844c-3.13 0-3.47 2.617-3.47 3.28h2c0-1.647 1.208-1.687 1.44-1.687 1.143 0 1.28.997 1.28 1.438 0 1.332-1.777 2.613-4.5 5.72v1.342h6.813v-1.593h-4.282c2.52-2.653 3.97-3.875 3.97-5.656 0-.438-.02-2.844-3.25-2.844zM3 7v10h2.28v-4.28h4.44V17H12V7H9.72v4.063H5.28V7z" id="svg_1"/></symbol></defs><g class="currentLayer" style=""><title>Layer 1</title><g id="svg_2" class="selected" fill="#ffffff" fill-opacity="1"><use xlink:href="#icon-header-2" width="24" height="24" x="3" y="3" id="svg_3"/></g></g></svg>