<svg xmlns="http://www.w3.org/2000/svg" xmlns:xlink="http://www.w3.org/1999/xlink" width="30" height="30" style=""><rect id="backgroundrect" width="100%" height="100%" x="0" y="0" fill="none" stroke="none"/><defs><symbol id="icon-header-3" viewBox="0 0 24 24"><path d="M17.125 7.813c-2.367 0-2.688 1.742-2.688 2.218h1.626c0-.14.093-.905 1.093-.905 1.094 0 1.094.883 1.094 1.03 0 1.013-.777 1.126-1.188 1.126h-.875v1.283h.875c.204 0 1.313-.047 1.313 1.218 0 .17-.047 1.095-1.22 1.095-1.12 0-1.186-.88-1.186-1.03h-1.626c0 .596.383 2.342 2.78 2.342.653 0 2.876-.253 2.876-2.406 0-1.303-.914-1.74-1.375-1.905.195-.09 1.25-.61 1.25-1.75 0-.383-.117-2.313-2.75-2.313zM4 8v8h1.78v-3.438h3.44V16H11V8H9.22v3.25H5.78V8z" id="svg_1"/></symbol></defs><g class="currentLayer" style=""><title>Layer 1</title><g id="svg_2" class="selected" fill="#ffffff" fill-opacity="1"><use xlink:href="#icon-header-3" width="24" height="24" x="3" y="3" id="svg_3"/></g></g></svg>